<svg id="customer-reviews" xmlns="http://www.w3.org/2000/svg" width="86.301" height="59.898" viewBox="0 0 86.301 59.898">
  <g id="Group_10601" data-name="Group 10601" transform="translate(0 0)">
    <path id="Path_50426" data-name="Path 50426" d="M78.643,100.546a28.43,28.43,0,0,0-17.9-6.024A29.987,29.987,0,0,0,49.2,96.782a22.394,22.394,0,0,0-8.465-8.971A29.114,29.114,0,0,0,25.555,83.7a28.43,28.43,0,0,0-17.9,6.024C2.72,93.719,0,99.077,0,104.811a19.074,19.074,0,0,0,6.329,13.927l.07,12.58a1.8,1.8,0,0,0,.874,1.593,1.777,1.777,0,0,0,1.746.017L21.4,125.645a31.206,31.206,0,0,0,4.157.279h0a30.09,30.09,0,0,0,11.53-2.26,21.28,21.28,0,0,0,5.763,7.06,28.43,28.43,0,0,0,17.9,6.024,31.231,31.231,0,0,0,4.179-.281l12.395,6.887a1.511,1.511,0,0,0,1.727-.05,1.917,1.917,0,0,0,.856-1.582l.07-12.159A19.075,19.075,0,0,0,86.3,115.634C86.3,109.9,83.581,104.542,78.643,100.546ZM25.556,122.21h0a27.834,27.834,0,0,1-4.282-.332,1.693,1.693,0,0,0-1.358.387L9.9,128.155l-.056-10.246c0-.037,0-.075,0-.112a1.893,1.893,0,0,0-.635-1.343,15.52,15.52,0,0,1-5.688-11.643c0-9.594,9.884-17.4,22.033-17.4,9,0,17.138,4.432,20.457,10.955a25.282,25.282,0,0,0-3.164,2.178c-4.938,4-7.658,9.355-7.658,15.089a17.879,17.879,0,0,0,.6,4.578A26.7,26.7,0,0,1,25.556,122.21Zm51.534,5.068a1.9,1.9,0,0,0-.634,1.343c0,.034,0,.067,0,.1l-.056,9.92-10.043-5.58a1.689,1.689,0,0,0-1.327-.36,27.789,27.789,0,0,1-4.282.332c-9.949,0-18.377-5.235-21.1-12.4-.011-.035-.026-.069-.039-.1a14,14,0,0,1-.89-4.9c0-6.173,4.093-11.6,10.247-14.694l.013,0a1.72,1.72,0,0,0,.2-.1,26.375,26.375,0,0,1,11.574-2.6c12.149,0,22.033,7.805,22.033,17.4A15.519,15.519,0,0,1,77.09,127.277Z" transform="translate(0 -83.699)" fill="#f94343"/>
    <path id="Path_50427" data-name="Path 50427" d="M300.095,222.2H278.033a1.878,1.878,0,0,0,0,3.755h22.062a1.878,1.878,0,1,0,0-3.755Z" transform="translate(-228.772 -196.5)" fill="#f94343"/>
    <path id="Path_50428" data-name="Path 50428" d="M300.095,267.469H278.033a1.878,1.878,0,0,0,0,3.755h22.062a1.878,1.878,0,1,0,0-3.755Z" transform="translate(-228.772 -233.374)" fill="#f94343"/>
  </g>
  <g id="Group_10602" data-name="Group 10602" transform="translate(0 0)">
    <path id="Path_50429" data-name="Path 50429" d="M78.643,100.546a28.43,28.43,0,0,0-17.9-6.024A29.987,29.987,0,0,0,49.2,96.782a22.394,22.394,0,0,0-8.465-8.971A29.114,29.114,0,0,0,25.555,83.7a28.43,28.43,0,0,0-17.9,6.024C2.72,93.719,0,99.077,0,104.811a19.074,19.074,0,0,0,6.329,13.927l.07,12.58a1.8,1.8,0,0,0,.874,1.593,1.777,1.777,0,0,0,1.746.017L21.4,125.645a31.206,31.206,0,0,0,4.157.279h0a30.09,30.09,0,0,0,11.53-2.26,21.28,21.28,0,0,0,5.763,7.06,28.43,28.43,0,0,0,17.9,6.024,31.231,31.231,0,0,0,4.179-.281l12.395,6.887a1.511,1.511,0,0,0,1.727-.05,1.917,1.917,0,0,0,.856-1.582l.07-12.159A19.075,19.075,0,0,0,86.3,115.634C86.3,109.9,83.581,104.542,78.643,100.546ZM25.556,122.21h0a27.834,27.834,0,0,1-4.282-.332,1.693,1.693,0,0,0-1.358.387L9.9,128.155l-.056-10.246c0-.037,0-.075,0-.112a1.893,1.893,0,0,0-.635-1.343,15.52,15.52,0,0,1-5.688-11.643c0-9.594,9.884-17.4,22.033-17.4,9,0,17.138,4.432,20.457,10.955a25.282,25.282,0,0,0-3.164,2.178c-4.938,4-7.658,9.355-7.658,15.089a17.879,17.879,0,0,0,.6,4.578A26.7,26.7,0,0,1,25.556,122.21Zm51.534,5.068a1.9,1.9,0,0,0-.634,1.343c0,.034,0,.067,0,.1l-.056,9.92-10.043-5.58a1.689,1.689,0,0,0-1.327-.36,27.789,27.789,0,0,1-4.282.332c-9.949,0-18.377-5.235-21.1-12.4-.011-.035-.026-.069-.039-.1a14,14,0,0,1-.89-4.9c0-9.781,10.039-17.4,22.033-17.4s22.033,7.805,22.033,17.4A15.52,15.52,0,0,1,77.09,127.277Z" transform="translate(0 -83.699)" fill="#f94343"/>
    <path id="Path_50430" data-name="Path 50430" d="M300.095,222.2H278.033a1.878,1.878,0,0,0,0,3.755h22.062a1.878,1.878,0,1,0,0-3.755Z" transform="translate(-228.772 -196.5)" fill="#f94343"/>
    <path id="Path_50431" data-name="Path 50431" d="M300.095,267.469H278.033a1.878,1.878,0,0,0,0,3.755h22.062a1.878,1.878,0,1,0,0-3.755Z" transform="translate(-228.772 -233.374)" fill="#f94343"/>
  </g>
</svg>
